<?xml version="1.0" encoding="utf-8"?>
<!-- Generator: Adobe Illustrator 27.4.0, SVG Export Plug-In . SVG Version: 6.00 Build 0)  -->
<svg version="1.1" id="Layer_1" xmlns="http://www.w3.org/2000/svg" xmlns:xlink="http://www.w3.org/1999/xlink" x="0px" y="0px"
	 viewBox="0 0 53.2 78.1" style="enable-background:new 0 0 53.2 78.1;" xml:space="preserve">
<style type="text/css">
	.st0{fill:none;stroke:#000000;stroke-width:3;stroke-miterlimit:10;}
</style>
<path class="st0" d="M51.6,26.6c0-13.8-11.2-25-25-25c-13.8,0-25,11.2-25,25c0,12,8.5,22.3,20.3,24.6v6.7h-4.7
	c-2.6,0-4.7,2.1-4.7,4.7c0,2.6,2.1,4.7,4.7,4.7h4.7v4.7c0,2.6,2.1,4.7,4.7,4.7s4.7-2.1,4.7-4.7v-4.7H36c2.6,0,4.7-2.1,4.7-4.7
	c0-2.6-2.1-4.7-4.7-4.7h-4.7v-6.7C43,48.8,51.6,38.5,51.6,26.6z M11,26.6c0-8.6,7-15.6,15.6-15.6s15.6,7,15.6,15.6
	s-7,15.6-15.6,15.6C18,42.2,11,35.2,11,26.6z"/>
</svg>
