<?xml version="1.0" encoding="utf-8"?>
<!-- Generator: Adobe Illustrator 27.4.0, SVG Export Plug-In . SVG Version: 6.00 Build 0)  -->
<svg version="1.1" id="Layer_1" xmlns="http://www.w3.org/2000/svg" xmlns:xlink="http://www.w3.org/1999/xlink" x="0px" y="0px"
	 viewBox="0 0 52.1 52.1" style="enable-background:new 0 0 52.1 52.1;" xml:space="preserve">
<style type="text/css">
	.st0{fill:none;stroke:#000000;stroke-width:2;stroke-miterlimit:10;}
</style>
<path class="st0" d="M43.8,1h-8.3c-1.7,0-3.1,1.4-3.1,3.1s1.4,3.1,3.1,3.1h4.9L28.9,18.8c-8-5.6-19.1-3.6-24.7,4.4
	S0.6,42.2,8.7,47.8c8,5.6,19.1,3.6,24.7-4.4c4.2-6.1,4.2-14.2,0-20.3l11.5-11.5v4.9c0,1.7,1.4,3.1,3.1,3.1c1.7,0,3.1-1.4,3.1-3.1
	V8.3C51.1,4.3,47.8,1,43.8,1z M18.8,44.7c-6.3,0-11.4-5.1-11.4-11.4s5.1-11.4,11.4-11.4s11.4,5.1,11.4,11.4
	C30.3,39.6,25.1,44.7,18.8,44.7z"/>
</svg>
